HIERARCHY
ROOT Hips
{
  OFFSET 31.3009 104.81 31.1864
  CHANNELS 6 Xposition Yposition Zposition Zrotation Xrotation Yrotation
  JOINT RightUpLeg
  {
    OFFSET -8.9458 -8.66707 0.101652
    CHANNELS 3 Zrotation Xrotation Yrotation
    JOINT RightLeg
    {
      OFFSET 0 -44.4227 1.3727
      CHANNELS 3 Zrotation Xrotation Yrotation
      JOINT RightFoot
      {
        OFFSET 0.253549 -42.0924 -1.46059
        CHANNELS 3 Zrotation Xrotation Yrotation
        JOINT RightToes
        {
          OFFSET 0.04 -4.41509 8.4991
          CHANNELS 3 Zrotation Xrotation Yrotation
          End Site
          {
            OFFSET -0.08 -0.137448 9.77979
          }
        }
      }
    }
  }
  JOINT Spine
  {
    OFFSET 0 11.8905 0
    CHANNELS 3 Zrotation Xrotation Yrotation
    JOINT Spine1
    {
      OFFSET 0 25.6574 0.127663
      CHANNELS 3 Zrotation Xrotation Yrotation
      JOINT HEad
      {
        OFFSET 0 8.73416 0.011341
        CHANNELS 3 Zrotation Xrotation Yrotation
        End Site
        {
          OFFSET -0.29 12.7742 2.51395
        }
      }
      JOINT LeftShoulder1
      {
        OFFSET 8.99 -0.362252 -0.22
        CHANNELS 3 Zrotation Xrotation Yrotation
        JOINT LeftArm
        {
          OFFSET 10.2827 -0.00338 0.322123
          CHANNELS 3 Zrotation Xrotation Yrotation
          JOINT LeftForeArm
          {
            OFFSET 32.7669 0.099144 -1.42434
            CHANNELS 3 Zrotation Xrotation Yrotation
            JOINT LeftHand
            {
              OFFSET 27.5643 0.085362 1.02216
              CHANNELS 3 Zrotation Xrotation Yrotation
              End Site
              {
                OFFSET 16.7443 -0.6 1.50291
              }
            }
          }
        }
      }
      JOINT RightShoulder
      {
        OFFSET -8.99 -0.362252 -0.22
        CHANNELS 3 Zrotation Xrotation Yrotation
        JOINT RightArm
        {
          OFFSET -10.2827 -0.00338 0.322123
          CHANNELS 3 Zrotation Xrotation Yrotation
          JOINT RightForeArm
          {
            OFFSET -32.8971 0.099144 -1.42434
            CHANNELS 3 Zrotation Xrotation Yrotation
            JOINT RightHand
            {
              OFFSET -27.4921 0.085362 1.02216
              CHANNELS 3 Zrotation Xrotation Yrotation
              End Site
              {
                OFFSET -16.6312 -0.6 1.50291
              }
            }
          }
        }
      }
    }
  }
  JOINT LeftUpLeg
  {
    OFFSET 8.9458 -8.66707 0.101652
    CHANNELS 3 Zrotation Xrotation Yrotation
    JOINT LeftLeg
    {
      OFFSET 0 -44.4227 1.3727
      CHANNELS 3 Zrotation Xrotation Yrotation
      JOINT LeftFoot
      {
        OFFSET -0.253549 -42.0924 -1.46059
        CHANNELS 3 Zrotation Xrotation Yrotation
        JOINT LeftToes
        {
          OFFSET -0.04 -4.41509 8.4991
          CHANNELS 3 Zrotation Xrotation Yrotation
          End Site
          {
            OFFSET 0.08 -0.047448 9.77979
          }
        }
      }
    }
  }
}
MOTION
Frames:	13
Frame Time:	0.0166667
159.75 98.2888 -2.63785 1.69 -0.275806 -152.145 -15.1618 -16.7222 -8.4712 8.75116 47.6159 -7.26756 7.58909 16.2049 -1.59114 -30.3598 -41.2077 -13.0054 -2.045 5.50132 3.52655 -2.44577 10.5135 7.40516 -8.43388 0.0488106 11.3712 1.59028e-015 0 1.59028e-014 -49.408 -46.2414 -7.82057 -21.9767 39.1162 -94.8215 16.7408 4.86416 -30.6248 19.1128 5.48424 22.8833 57.3743 -23.8347 32.0979 -12.6102 34.043 143.652 -12.441 14.3017 -46.2301 12.5482 -27.344 4.99468 13.0703 33.6371 -24.3658 -19.9888 4.00641 2.01079 7.9248 -11.2259 -3.19142 
158.766 97.7934 -3.06304 1.673 -0.0120515 -152.801 -16.1197 -17.2574 -9.01503 11.6551 48.303 -12.8959 5.82285 14.6614 -1.15592 -27.809 -38.3774 -12.6653 -1.69169 5.15022 3.31222 -1.98569 9.90638 6.89618 -8.4948 1.0835 11.8898 -2.38542e-015 0 3.18055e-015 -48.2434 -49.9643 -10.5108 -26.3842 39.8577 -86.7645 16.2497 4.96683 -30.9893 19.7622 5.79498 23.5907 56.0246 -24.6487 33.0303 -13.1136 34.1594 142.804 -12.5649 14.3542 -46.2818 11.8838 -25.8256 4.77641 13.6677 31.5343 -24.0792 -19.4626 1.78039 1.59063 6.69861 -9.25231 -1.95768 
157.719 97.2009 -3.4888 1.52161 0.388063 -153.378 -16.7165 -16.8377 -8.88816 13.8229 47.8935 -17.6361 4.35013 11.9764 -0.786124 -25.6798 -36.0122 -12.2458 -1.49613 4.89756 3.14784 -1.50946 9.43201 6.52079 -8.53208 2.04133 12.1683 -7.95139e-016 1.59028e-015 9.54166e-015 -48.4416 -52.2713 -13.4299 -30.9045 39.4939 -78.9204 15.0474 5.24663 -31.7732 20.1504 6.01939 24.1594 55.2896 -25.5641 34.7249 -13.9533 34.7374 141.541 -12.8888 14.482 -46.3323 11.2192 -25.1987 4.44402 14.595 31.674 -24.4235 -19.56 0.828662 1.44169 6.73266 -9.20499 -1.49547 
156.604 96.5723 -3.89173 1.19315 0.837572 -154.021 -16.9878 -15.6754 -8.1128 14.7341 46.6691 -20.6651 3.40895 8.81118 -0.552582 -24.2869 -34.4091 -12.023 -1.49748 4.75779 3.068 -1.08816 9.12341 6.34342 -8.59155 2.78266 12.2023 2.38542e-015 -1.59028e-015 -0 -49.4174 -53.2034 -15.7275 -35.085 38.2391 -72.4579 13.2015 5.69573 -33.0847 20.1374 6.10858 24.5537 55.3212 -26.4426 37.2197 -15.1305 35.794 139.859 -13.315 14.6582 -46.4601 10.5825 -25.6446 4.06223 15.7681 34.1138 -25.4382 -20.2661 1.30932 1.57794 8.03082 -11.0342 -1.77082 
155.394 95.9315 -4.25669 0.710711 1.28625 -154.893 -17.0481 -14.0581 -6.85877 14.286 45.0411 -21.6867 2.97478 5.6809 -0.430141 -23.6227 -33.5581 -12.1194 -1.60647 4.72736 3.10294 -0.75085 9.00774 6.41402 -8.68218 3.15427 12.0247 7.95139e-016 0 3.18055e-015 -50.5012 -53.0264 -16.65 -38.6164 36.6676 -68.261 10.9107 6.30717 -34.7763 19.63 6.0312 24.7576 56.1764 -27.1663 40.442 -16.5623 37.3362 137.793 -13.7589 14.8539 -46.6792 10.0801 -27.0483 3.71383 17.0833 38.3379 -27.0554 -21.7151 3.31275 2.0641 10.3168 -14.468 -2.83553 
154.041 95.2803 -4.57734 0.151672 1.71777 -156.141 -17.0783 -12.2785 -5.38182 12.7644 43.36 -20.8919 2.89314 2.94385 -0.369891 -23.5286 -33.3118 -12.466 -1.66999 4.79217 3.26887 -0.492584 9.09741 6.7592 -8.77272 3.04508 11.7154 0 0 -6.36111e-015 -51.2401 -51.9931 -15.8623 -41.2429 35.4974 -66.8496 8.48686 7.03633 -36.498 18.617 5.78399 24.7668 57.77 -27.6247 44.1707 -18.0536 39.3209 135.388 -14.1758 15.0438 -46.9189 9.88849 -29.1067 3.48207 18.3889 43.5813 -29.0973 -23.9702 6.56064 2.95107 12.8561 -18.7305 -4.83138 
152.506 94.6315 -4.85711 -0.391294 2.12568 -157.874 -17.2958 -10.5923 -3.93593 10.688 41.7855 -18.7636 2.9589 0.900862 -0.336858 -23.8742 -33.5578 -12.9264 -1.58812 4.93303 3.56469 -0.299583 9.37811 7.3714 -8.80881 2.43692 11.4044 0 0 -3.18055e-015 -51.4682 -50.215 -13.5161 -42.5611 35.2863 -68.4573 6.29701 7.772 -37.8622 17.1906 5.39703 24.5857 59.8683 -27.7347 48.0328 -19.2971 41.6327 132.676 -14.5839 15.2143 -47.0249 10.1773 -31.449 3.43849 19.4952 49.1235 -31.2823 -26.7522 10.2692 4.16137 14.5458 -22.4439 -7.78816 
150.775 94.0289 -5.10723 -0.848656 2.49057 -160.13 -17.8952 -9.21099 -2.72002 8.615 40.2992 -15.8646 2.98871 -0.181132 -0.318058 -24.6029 -34.248 -13.4103 -1.38865 5.12785 3.97052 -0.170353 9.80134 8.19914 -8.74063 1.42588 11.261 -0 0 3.18055e-015 -51.2532 -47.7457 -10.1511 -41.959 36.1311 -73.1057 4.65117 8.3739 -38.5713 15.5413 4.93064 24.2339 62.1493 -27.4944 51.5611 -19.9253 44.1034 129.677 -15.0676 15.3679 -46.7961 11.0227 -33.7149 3.62253 20.194 54.3699 -33.1844 -29.3779 13.504 5.41354 14.7683 -24.3955 -11.1616 
148.873 93.5256 -5.34251 -1.1845 2.779 -162.863 -18.9589 -8.30295 -1.87945 6.93402 38.8419 -12.6479 2.92909 -0.193887 -0.313918 -25.6258 -35.293 -13.8385 -1.18785 5.34832 4.44337 -0.112606 10.2864 9.1428 -8.54753 0.203884 11.4631 7.95139e-016 3.18055e-015 -0 -50.7352 -44.7809 -6.44973 -38.8859 37.5112 -80.5245 3.66827 8.75959 -38.4485 13.9242 4.46241 23.7545 64.305 -27.0097 54.2943 -19.6177 46.5478 126.45 -15.7413 15.5168 -46.0551 12.3848 -35.6013 4.00461 20.2294 58.8159 -34.1829 -31.053 15.7233 6.33946 14.0645 -24.6247 -13.8811 
146.852 93.1474 -5.58105 -1.38992 2.9575 -165.942 -20.3957 -7.96962 -1.51309 5.7232 37.4345 -9.35408 2.91029 0.670417 -0.328902 -26.6896 -36.4581 -14.0431 -1.09851 5.55604 4.91592 -0.124023 10.7332 10.0609 -8.25328 -0.99148 12.1554 1.59028e-015 -3.18055e-015 -3.18055e-015 -49.8974 -41.8007 -2.91955 -33.4779 38.4925 -89.8093 3.18076 8.97205 -37.471 12.605 4.06861 23.2154 66.1048 -26.4583 55.8664 -18.2329 48.781 123.171 -16.6716 15.6632 -44.7427 14.1303 -36.8822 4.465 19.2833 62.0274 -33.5629 -31.2759 16.917 6.7122 13.372 -24.151 -15.2519 
144.778 92.8785 -5.84557 -1.47433 3.00613 -169.169 -21.9607 -8.20738 -1.64041 4.76683 36.1807 -6.05929 3.1475 1.95364 -0.372853 -27.3932 -37.3864 -13.7957 -1.17082 5.70724 5.30361 -0.17634 11.0447 10.7874 -7.92784 -1.9401 13.4146 7.95139e-016 1.59028e-015 3.18055e-015 -48.4328 -39.588 0.303692 -27.0609 38.4392 -99.1134 2.78831 9.15206 -35.8886 11.8099 3.80863 22.6987 67.3706 -26.0139 56.0449 -15.9136 50.6203 120.18 -17.8049 15.7873 -42.9883 16.0612 -37.4119 4.81331 17.1543 63.6515 -30.8704 -30.0092 17.3494 6.53587 13.1502 -23.7806 -15.2789 
142.712 92.6735 -6.1599 -1.45334 2.92809 -172.314 -23.3517 -8.90045 -2.14392 3.72924 35.1932 -2.83401 3.768 3.14477 -0.456091 -27.3804 -37.7247 -12.9902 -1.37181 5.76385 5.5183 -0.212688 11.1499 11.1573 -7.6725 -2.49306 15.2323 -0 -1.59028e-015 -0 -45.7724 -39.0892 3.44202 -21.6252 37.7372 -106.176 2.13718 9.40919 -34.2877 11.6953 3.71943 22.282 67.9019 -25.7694 54.7305 -13.1111 51.8761 117.973 -18.9396 15.8578 -41.1186 17.9436 -37.1218 4.85296 14.1546 63.4315 -26.4249 -27.6292 17.324 5.98187 13.4024 -23.6946 -14.2536 
140.694 92.4668 -6.54278 -1.34427 2.75059 -175.141 -24.3396 -9.87142 -2.75671 2.37109 34.5614 0.111607 4.71145 3.90301 -0.57108 -26.5682 -37.2735 -11.8089 -1.61629 5.70191 5.4885 -0.166587 11.016 11.0347 -7.58854 -2.59855 17.5178 7.95139e-016 1.59028e-015 6.36111e-015 -41.2568 -40.97 6.9038 -18.6155 37.5054 -109.379 1.22908 9.72745 -33.3221 12.3429 3.81888 22.0206 67.4344 -25.6741 51.9432 -10.4844 52.3273 117.091 -19.7707 15.8562 -39.579 19.5373 -36.0232 4.46872 11.2611 61.2705 -21.4908 -24.7834 17.1082 5.28823 13.9967 -23.8103 -12.4966 
